<svg xmlns="http://www.w3.org/2000/svg" xmlns:xlink="http://www.w3.org/1999/xlink" viewBox="0 0 3682.23 9223.48"><defs><style>.cls-1,.cls-11,.cls-2{fill:#9d9d9c;}.cls-1{clip-rule:evenodd;}.cls-3{font-size:130px;}.cls-3,.cls-7{fill:#545ea7;}.cls-25,.cls-3,.cls-35,.cls-8{font-family:CircularStd-Book, Circular Std;}.cls-4{letter-spacing:0em;}.cls-5{letter-spacing:-0.09em;}.cls-15,.cls-25,.cls-35,.cls-6,.cls-8{fill:#fff;}.cls-8{font-size:54px;}.cls-9{letter-spacing:-0.01em;}.cls-10{letter-spacing:-0.02em;}.cls-11{fill-rule:evenodd;}.cls-12{clip-path:url(#clip-path);}.cls-13{clip-path:url(#clip-path-2);}.cls-14,.cls-25{opacity:0.8;}.cls-15{font-size:46px;font-family:CircularStd-Medium, Circular Std;font-weight:500;}.cls-16{letter-spacing:0em;}.cls-17{letter-spacing:0em;}.cls-18{letter-spacing:0em;}.cls-19{letter-spacing:-0.01em;}.cls-20{letter-spacing:-0.02em;}.cls-21{letter-spacing:-0.01em;}.cls-22{letter-spacing:0em;}.cls-23{letter-spacing:0em;}.cls-24{letter-spacing:0em;}.cls-25{font-size:36px;}.cls-26{letter-spacing:-0.01em;}.cls-27{letter-spacing:0em;}.cls-28{letter-spacing:-0.02em;}.cls-29{letter-spacing:-0.02em;}.cls-30{letter-spacing:0em;}.cls-31{letter-spacing:0.01em;}.cls-32{letter-spacing:0em;}.cls-33{fill:#f6f6f6;}.cls-34{fill:none;stroke:#f6f6f6;stroke-miterlimit:10;}.cls-35{font-size:28px;}.cls-36{letter-spacing:0em;}.cls-37{letter-spacing:-0.02em;}.cls-38{letter-spacing:-0.01em;}.cls-39{font-size:12px;fill:#1d1d1b;font-family:MyriadPro-Regular, Myriad Pro;}.cls-40{letter-spacing:0.01em;}</style><clipPath id="clip-path"><path class="cls-1" d="M1661.51,4587.39a6.67,6.67,0,0,0,3.82-1.15v6.82a12.46,12.46,0,0,1-6.07,1.36,8.82,8.82,0,0,1-3.72-.71,6.34,6.34,0,0,1-2.44-1.73,7.5,7.5,0,0,1-1.37-2.71,14.41,14.41,0,0,1-.65-3.21c-.1-1-.15-2.21-.15-3.58v-12.21h.06v-.15l-.64,0-.62,0a13,13,0,0,0-2.07.22v-6.62H1651V4561a20,20,0,0,0-.19-3.09h7.9a52.84,52.84,0,0,0-.19,5.73h5.93v6.62c-.34,0-.83,0-1.51-.07s-1.16-.08-1.48-.08h-2.94v12.71C1658.51,4585.87,1659.52,4587.39,1661.51,4587.39Zm-17.27,1.91c0,2.06,0,3.62.15,4.67h-7.75c.11-1.05.15-2.61.15-4.67v-21.2a40.13,40.13,0,0,0-.15-4.45h7.75a37.62,37.62,0,0,0-.15,4.31Zm-3.68-41.14a4.28,4.28,0,0,1,3.35,1.55,5.33,5.33,0,0,1,1.34,3.58,5.13,5.13,0,0,1-1.36,3.53,4.32,4.32,0,0,1-3.33,1.5,4.46,4.46,0,0,1-3.42-1.5,5.08,5.08,0,0,1-1.4-3.53,5.27,5.27,0,0,1,1.37-3.6A4.47,4.47,0,0,1,1640.56,4548.16Zm-20.77,31.18c2.76,0,4.13-1.58,4.13-4.76a5.92,5.92,0,0,0-1-3.56,3.62,3.62,0,0,0-3.1-1.41c-2.88,0-4.32,1.67-4.32,5C1615.47,4577.78,1616.91,4579.34,1619.79,4579.34Zm.93,25.17c3.5,0,5.27-1.22,5.27-3.66s-1.91-3.47-5.75-3.47c-3.67,0-5.5,1.2-5.5,3.62S1616.74,4604.51,1620.72,4604.51Zm5-39.56a21.06,21.06,0,0,0,7.59-1.64v7a26.92,26.92,0,0,1-2.75.77,8.43,8.43,0,0,1,.56,2.92,11.68,11.68,0,0,1-2.53,7.54,11.22,11.22,0,0,1-6.87,3.91,4.33,4.33,0,0,0-2.09.94,2.73,2.73,0,0,0-.67,2,2.38,2.38,0,0,0,.78,1.79,5.5,5.5,0,0,0,2,1.11c.82.26,1.74.53,2.73.76s2,.55,3,.89a13.5,13.5,0,0,1,2.76,1.3,6.17,6.17,0,0,1,2,2.23,7.15,7.15,0,0,1,.78,3.43q0,10.57-12.66,10.58a22.42,22.42,0,0,1-4.51-.43,15.49,15.49,0,0,1-4-1.43,7.52,7.52,0,0,1-3.06-2.86,8.38,8.38,0,0,1-1.11-4.43q0-5.74,6.32-7.83v-.15a4.76,4.76,0,0,1-2.32-4.37c0-2.54.73-4.12,2.19-4.77v-.14a7.72,7.72,0,0,1-4.17-3.77,11.81,11.81,0,0,1-1.66-5.77,10.86,10.86,0,0,1,3.31-8.06,11.36,11.36,0,0,1,8.2-3.21A12.21,12.21,0,0,1,1625.71,4565Z"/></clipPath><clipPath id="clip-path-2"><rect class="cls-2" width="3682.23" height="9223.48"/></clipPath></defs><title>platform white</title><g id="Lager_2" data-name="Lager 2"><g id="Layer_1" data-name="Layer 1"><text class="cls-3" transform="translate(942.24 4025.29)"><tspan class="cls-4">J</tspan><tspan x="68.77" y="0">ob</tspan><tspan class="cls-5" x="220.22" y="0">T</tspan><tspan x="284.83" y="0">ech</tspan></text><path class="cls-6" d="M962.49,4047v30.9h-4.9V4047H945.74v-4.55h28.6V4047Z"/><path class="cls-6" d="M983.54,4077.87h-4.7v-36.2h4.7v14.95a8.51,8.51,0,0,1,7.3-3.5c5.75,0,8.6,4.15,8.6,9.5v15.25h-4.7v-14.45c0-3.35-1.4-6.05-5.6-6.05-3.6,0-5.5,2.8-5.6,6.35Z"/><path class="cls-6" d="M1027.89,4071a10.9,10.9,0,0,1-10.8,7.6c-6.45,0-12.1-4.7-12.1-12.85,0-7.55,5.45-12.7,11.5-12.7,7.4,0,11.55,5.1,11.55,12.6a10.56,10.56,0,0,1-.1,1.5h-18.1a7.14,7.14,0,0,0,7.25,7.3,6.55,6.55,0,0,0,6.75-4.85Zm-4.75-7.65c-.1-3.45-2.35-6.15-6.6-6.15a6.47,6.47,0,0,0-6.55,6.15Z"/><path class="cls-6" d="M1046.54,4077.87v-36.2h4.7v36.2Z"/><path class="cls-6" d="M1065,4064.12l6.5-.95c1.45-.2,1.85-1,1.85-1.8,0-2.35-1.55-4.3-5.2-4.3a5.1,5.1,0,0,0-5.45,4.85l-4.5-1.05c.5-4.6,4.65-7.8,9.85-7.8,7.2,0,10,4.1,10,8.8v12.05a22.62,22.62,0,0,0,.3,3.95h-4.6a17.59,17.59,0,0,1-.25-3.25,8.77,8.77,0,0,1-7.75,4c-4.9,0-8-3.4-8-7.2C1057.74,4067.12,1060.89,4064.72,1065,4064.12Zm8.35,3.45v-1.1l-7.35,1.1c-2,.3-3.5,1.45-3.5,3.6a3.65,3.65,0,0,0,3.9,3.5C1070.29,4074.67,1073.39,4072.82,1073.39,4067.57Z"/><path class="cls-6" d="M1085.39,4077.87v-36.2H1090v15.55c1.15-2.15,4-4.1,8-4.1,7.3,0,11,5.6,11,12.6,0,7.15-4,12.8-11.2,12.8a8.58,8.58,0,0,1-7.8-4.15v3.5Zm11.75-20.6c-4.15,0-7.15,3.25-7.15,8.45s3,8.6,7.15,8.6,7.1-3.4,7.1-8.6S1101.49,4057.27,1097.14,4057.27Z"/><path class="cls-6" d="M1137.64,4065.82c0,7.35-5.1,12.8-12.3,12.8s-12.3-5.45-12.3-12.8,5.1-12.75,12.3-12.75S1137.64,4058.52,1137.64,4065.82Zm-4.8,0c0-5.55-3.5-8.55-7.5-8.55s-7.5,3-7.5,8.55,3.5,8.6,7.5,8.6S1132.84,4071.42,1132.84,4065.82Z"/><path class="cls-6" d="M1152.14,4078.62c-5.6,0-9-4.2-9-9.65v-15.15h4.7v14.45c0,3.3,1.5,6.2,5.45,6.2,3.8,0,5.7-2.5,5.7-6.15v-14.5h4.7v19.6a40.46,40.46,0,0,0,.25,4.45h-4.5a21.29,21.29,0,0,1-.2-2.9C1157.94,4077.47,1154.94,4078.62,1152.14,4078.62Z"/><path class="cls-6" d="M1185,4058.57a14.67,14.67,0,0,0-2-.15c-4,0-6.6,2.1-6.6,7.4v12h-4.7v-24h4.6v4.2a7.53,7.53,0,0,1,7.2-4.6,8.84,8.84,0,0,1,1.55.15Z"/><path class="cls-6" d="M1202.54,4077.87v-24h4.5v3.2a8.29,8.29,0,0,1,7.3-3.9,7.51,7.51,0,0,1,7.2,4.55,8.63,8.63,0,0,1,8-4.55c4.2,0,8.3,2.85,8.3,9.15v15.6h-4.65v-15.1c0-3.15-1.55-5.5-5.1-5.5-3.3,0-5.55,2.6-5.55,6.05v14.55h-4.7v-15.1c0-3.1-1.5-5.5-5.1-5.5-3.35,0-5.6,2.5-5.6,6.1v14.5Z"/><path class="cls-6" d="M1251.19,4064.12l6.5-.95c1.45-.2,1.85-1,1.85-1.8,0-2.35-1.55-4.3-5.2-4.3a5.1,5.1,0,0,0-5.45,4.85l-4.5-1.05c.5-4.6,4.65-7.8,9.85-7.8,7.2,0,10,4.1,10,8.8v12.05a22.62,22.62,0,0,0,.3,3.95h-4.6a17.59,17.59,0,0,1-.25-3.25,8.77,8.77,0,0,1-7.75,4c-4.9,0-8-3.4-8-7.2C1243.89,4067.12,1247,4064.72,1251.19,4064.12Zm8.35,3.45v-1.1l-7.35,1.1c-2,.3-3.5,1.45-3.5,3.6a3.65,3.65,0,0,0,3.9,3.5C1256.44,4074.67,1259.54,4072.82,1259.54,4067.57Z"/><path class="cls-6" d="M1284.89,4058.57a14.67,14.67,0,0,0-2.05-.15c-3.95,0-6.6,2.1-6.6,7.4v12h-4.7v-24h4.6v4.2a7.53,7.53,0,0,1,7.2-4.6,8.84,8.84,0,0,1,1.55.15Z"/><path class="cls-6" d="M1301.19,4064l10.45,13.9h-5.9l-7.85-10.6-3.35,3.35v7.25h-4.65v-36.2h4.65v22.8l10.4-10.65h6.5Z"/><path class="cls-6" d="M1335.84,4071a10.9,10.9,0,0,1-10.8,7.6c-6.45,0-12.1-4.7-12.1-12.85,0-7.55,5.45-12.7,11.5-12.7,7.4,0,11.55,5.1,11.55,12.6a10.56,10.56,0,0,1-.1,1.5h-18.1a7.14,7.14,0,0,0,7.25,7.3,6.55,6.55,0,0,0,6.75-4.85Zm-4.75-7.65c-.1-3.45-2.35-6.15-6.6-6.15a6.47,6.47,0,0,0-6.55,6.15Z"/><path class="cls-6" d="M1348.29,4053.82h5.2v4.25h-5.2v12.5c0,2.2.9,3.3,3.35,3.3a9.51,9.51,0,0,0,1.85-.2v4a10.29,10.29,0,0,1-3.2.45c-4.1,0-6.7-2.5-6.7-6.85v-13.2H1339v-4.25h1.3a3.36,3.36,0,0,0,3.7-3.7v-3.9h4.3Z"/><path class="cls-6" d="M1393.19,4071a10.9,10.9,0,0,1-10.8,7.6c-6.45,0-12.1-4.7-12.1-12.85,0-7.55,5.45-12.7,11.5-12.7,7.4,0,11.55,5.1,11.55,12.6a10.56,10.56,0,0,1-.1,1.5h-18.1a7.14,7.14,0,0,0,7.25,7.3,6.55,6.55,0,0,0,6.75-4.85Zm-4.75-7.65c-.1-3.45-2.35-6.15-6.6-6.15a6.47,6.47,0,0,0-6.55,6.15Z"/><path class="cls-6" d="M1402.14,4065.82c0,5.5,3.45,8.45,7.35,8.45a6.54,6.54,0,0,0,6.7-4.95l4.15,1.8a11.05,11.05,0,0,1-10.85,7.5c-7,0-12.15-5.5-12.15-12.8,0-7.5,5.25-12.75,12.1-12.75,6.4,0,9.7,4,10.7,7.65l-4.25,1.8a6.31,6.31,0,0,0-6.45-5.1C1405.64,4057.42,1402.14,4060.22,1402.14,4065.82Z"/><path class="cls-6" d="M1448.19,4065.82c0,7.35-5.1,12.8-12.3,12.8s-12.3-5.45-12.3-12.8,5.1-12.75,12.3-12.75S1448.19,4058.52,1448.19,4065.82Zm-4.8,0c0-5.55-3.5-8.55-7.5-8.55s-7.5,3-7.5,8.55,3.5,8.6,7.5,8.6S1443.39,4071.42,1443.39,4065.82Z"/><path class="cls-6" d="M1456.19,4070.12c.3,2.5,2.2,4.5,5.6,4.5,2.65,0,4.1-1.5,4.1-3.2,0-1.5-1.1-2.65-3.1-3.1l-4.1-.9c-3.75-.8-6-3.35-6-6.75,0-4.1,3.85-7.6,8.55-7.6,6.6,0,8.65,4.3,9.15,6.45l-4.15,1.55a4.67,4.67,0,0,0-5-4c-2.4,0-4,1.55-4,3.2,0,1.45.9,2.5,2.75,2.9l3.9.85c4.35.95,6.65,3.6,6.65,7.15,0,3.4-2.85,7.45-8.8,7.45-6.6,0-9.4-4.25-9.8-7Z"/><path class="cls-6" d="M1477.39,4087.92l6-12.7-10.35-21.4h5.4l7.5,16.6,7.2-16.6h5l-15.65,34.1Z"/><path class="cls-6" d="M1504.19,4070.12c.3,2.5,2.2,4.5,5.6,4.5,2.65,0,4.1-1.5,4.1-3.2,0-1.5-1.1-2.65-3.1-3.1l-4.1-.9c-3.75-.8-6-3.35-6-6.75,0-4.1,3.85-7.6,8.55-7.6,6.6,0,8.65,4.3,9.15,6.45l-4.15,1.55a4.67,4.67,0,0,0-5-4c-2.4,0-4,1.55-4,3.2,0,1.45.9,2.5,2.75,2.9l3.9.85c4.35.95,6.65,3.6,6.65,7.15,0,3.4-2.85,7.45-8.8,7.45-6.6,0-9.4-4.25-9.8-7Z"/><path class="cls-6" d="M1531.09,4053.82h5.2v4.25h-5.2v12.5c0,2.2.9,3.3,3.35,3.3a9.51,9.51,0,0,0,1.85-.2v4a10.29,10.29,0,0,1-3.2.45c-4.1,0-6.7-2.5-6.7-6.85v-13.2h-4.6v-4.25h1.3a3.36,3.36,0,0,0,3.7-3.7v-3.9h4.3Z"/><path class="cls-6" d="M1563.24,4071a10.9,10.9,0,0,1-10.8,7.6c-6.45,0-12.1-4.7-12.1-12.85,0-7.55,5.45-12.7,11.5-12.7,7.4,0,11.55,5.1,11.55,12.6a10.56,10.56,0,0,1-.1,1.5h-18.1a7.14,7.14,0,0,0,7.25,7.3,6.55,6.55,0,0,0,6.75-4.85Zm-4.75-7.65c-.1-3.45-2.35-6.15-6.6-6.15a6.47,6.47,0,0,0-6.55,6.15Z"/><path class="cls-6" d="M1569.39,4077.87v-24h4.5v3.2a8.29,8.29,0,0,1,7.3-3.9,7.51,7.51,0,0,1,7.2,4.55,8.63,8.63,0,0,1,8-4.55c4.2,0,8.3,2.85,8.3,9.15v15.6h-4.65v-15.1c0-3.15-1.55-5.5-5.1-5.5-3.3,0-5.55,2.6-5.55,6.05v14.55h-4.7v-15.1c0-3.1-1.5-5.5-5.1-5.5-3.35,0-5.6,2.5-5.6,6.1v14.5Z"/><path class="cls-6" d="M955.54,4118.07v19.8h-4.85v-19.8h-4.45v-4.25h4.45v-4c0-5.35,3.55-8.25,7.9-8.25a6.07,6.07,0,0,1,2.8.5v4.2a5.43,5.43,0,0,0-2-.3c-1.65,0-3.8.8-3.8,4.1v3.8h5.8v4.25Z"/><path class="cls-6" d="M988,4125.82c0,7.35-5.1,12.8-12.3,12.8s-12.3-5.45-12.3-12.8,5.1-12.75,12.3-12.75S988,4118.52,988,4125.82Zm-4.8,0c0-5.55-3.5-8.55-7.5-8.55s-7.5,3-7.5,8.55,3.5,8.6,7.5,8.6S983.19,4131.42,983.19,4125.82Z"/><path class="cls-6" d="M1007.34,4118.57a14.67,14.67,0,0,0-2.05-.15c-3.95,0-6.6,2.1-6.6,7.4v12.05H994v-24.05h4.6v4.2a7.53,7.53,0,0,1,7.2-4.6,8.84,8.84,0,0,1,1.55.15Z"/><path class="cls-6" d="M1041.69,4134.22a8.05,8.05,0,0,1-7.45,4.3c-7,0-11.4-5.6-11.4-12.75,0-6.8,4.6-12.6,11.4-12.6,4.25,0,6.55,2.1,7.35,4.05v-15.55h4.65v31.75a38,38,0,0,0,.25,4.45h-4.55a20.14,20.14,0,0,1-.25-3.25Zm-7,.15c4.3,0,7-3.75,7-8.7s-2.6-8.35-6.9-8.35-7.1,3.5-7.1,8.45S1030.19,4134.37,1034.69,4134.37Z"/><path class="cls-6" d="M1056.54,4101.32a3.38,3.38,0,1,1-3.35,3.4A3.37,3.37,0,0,1,1056.54,4101.32Zm-2.3,36.55v-24.05h4.65v24.05Z"/><path class="cls-6" d="M1069.69,4138.12a6.39,6.39,0,0,0,6.55,5.9c5,0,7.35-2.6,7.35-7.8v-3.45a8,8,0,0,1-7.35,3.95c-6.4,0-11-4.85-11-11.65,0-6.5,4.45-11.7,11-11.7,3.7,0,6.2,1.4,7.4,3.8v-3.35h4.65v22.25c0,6.1-3,12.05-12,12.05-6,0-10.5-3.8-11.1-8.95Zm14.1-13.05c0-4.65-2.8-7.7-6.85-7.7s-7,3.05-7,7.7,2.7,7.7,7,7.7C1081,4132.77,1083.79,4129.72,1083.79,4125.07Z"/><path class="cls-6" d="M1098.09,4101.32a3.38,3.38,0,1,1-3.35,3.4A3.37,3.37,0,0,1,1098.09,4101.32Zm-2.3,36.55v-24.05h4.65v24.05Z"/><path class="cls-6" d="M1114.74,4113.82h5.2v4.25h-5.2v12.5c0,2.2.9,3.3,3.35,3.3a9.51,9.51,0,0,0,1.85-.2v4a10.29,10.29,0,0,1-3.2.45c-4.1,0-6.7-2.5-6.7-6.85v-13.2h-4.6v-4.25h1.3a3.36,3.36,0,0,0,3.7-3.7v-3.9h4.3Z"/><path class="cls-6" d="M1132,4124.12l6.5-.95c1.45-.2,1.85-.95,1.85-1.8,0-2.35-1.55-4.3-5.2-4.3a5.1,5.1,0,0,0-5.45,4.85l-4.5-1.05c.5-4.6,4.65-7.8,9.85-7.8,7.2,0,10,4.1,10,8.8v12.05a22.62,22.62,0,0,0,.3,3.95h-4.6a17.59,17.59,0,0,1-.25-3.25,8.77,8.77,0,0,1-7.75,4c-4.9,0-8-3.4-8-7.2C1124.69,4127.12,1127.84,4124.72,1132,4124.12Zm8.35,3.45v-1.1l-7.35,1.1c-2,.3-3.5,1.45-3.5,3.6a3.65,3.65,0,0,0,3.9,3.5C1137.24,4134.67,1140.34,4132.82,1140.34,4127.57Z"/><path class="cls-6" d="M1152.34,4137.87v-36.2h4.7v36.2Z"/><path class="cls-6" d="M1179.84,4101.32a3.38,3.38,0,1,1-3.35,3.4A3.37,3.37,0,0,1,1179.84,4101.32Zm-2.3,36.55v-24.05h4.65v24.05Z"/><path class="cls-6" d="M1194.89,4137.87h-4.7v-24.05h4.6v3.45a8.24,8.24,0,0,1,7.4-4.15c5.75,0,8.6,4.15,8.6,9.5v15.25h-4.7v-14.45c0-3.35-1.4-6.05-5.6-6.05-3.7,0-5.6,2.95-5.6,6.6Z"/><path class="cls-6" d="M1223,4137.87h-4.7v-24.05h4.6v3.45a8.24,8.24,0,0,1,7.4-4.15c5.75,0,8.6,4.15,8.6,9.5v15.25h-4.7v-14.45c0-3.35-1.4-6.05-5.6-6.05-3.7,0-5.6,2.95-5.6,6.6Z"/><path class="cls-6" d="M1269,4125.82c0,7.35-5.1,12.8-12.3,12.8s-12.3-5.45-12.3-12.8,5.1-12.75,12.3-12.75S1269,4118.52,1269,4125.82Zm-4.8,0c0-5.55-3.5-8.55-7.5-8.55s-7.5,3-7.5,8.55,3.5,8.6,7.5,8.6S1264.19,4131.42,1264.19,4125.82Z"/><path class="cls-6" d="M1285.24,4137.87h-4.75l-9.75-24.05h5.3l6.85,18.55,6.9-18.55h5Z"/><path class="cls-6" d="M1304.89,4124.12l6.5-.95c1.45-.2,1.85-.95,1.85-1.8,0-2.35-1.55-4.3-5.2-4.3a5.1,5.1,0,0,0-5.45,4.85l-4.5-1.05c.5-4.6,4.65-7.8,9.85-7.8,7.2,0,10,4.1,10,8.8v12.05a22.62,22.62,0,0,0,.3,3.95h-4.6a17.59,17.59,0,0,1-.25-3.25,8.77,8.77,0,0,1-7.75,4c-4.9,0-8.05-3.4-8.05-7.2C1297.59,4127.12,1300.74,4124.72,1304.89,4124.12Zm8.35,3.45v-1.1l-7.35,1.1c-2,.3-3.5,1.45-3.5,3.6a3.65,3.65,0,0,0,3.9,3.5C1310.14,4134.67,1313.24,4132.82,1313.24,4127.57Z"/><path class="cls-6" d="M1331.54,4113.82h5.2v4.25h-5.2v12.5c0,2.2.9,3.3,3.35,3.3a9.51,9.51,0,0,0,1.85-.2v4a10.29,10.29,0,0,1-3.2.45c-4.1,0-6.7-2.5-6.7-6.85v-13.2h-4.6v-4.25h1.3a3.36,3.36,0,0,0,3.7-3.7v-3.9h4.3Z"/><path class="cls-6" d="M1345.29,4101.32a3.38,3.38,0,1,1-3.35,3.4A3.37,3.37,0,0,1,1345.29,4101.32Zm-2.3,36.55v-24.05h4.65v24.05Z"/><path class="cls-6" d="M1378.24,4125.82c0,7.35-5.1,12.8-12.3,12.8s-12.3-5.45-12.3-12.8,5.1-12.75,12.3-12.75S1378.24,4118.52,1378.24,4125.82Zm-4.8,0c0-5.55-3.5-8.55-7.5-8.55s-7.5,3-7.5,8.55,3.5,8.6,7.5,8.6S1373.44,4131.42,1373.44,4125.82Z"/><path class="cls-6" d="M1388.94,4137.87h-4.7v-24.05h4.6v3.45a8.24,8.24,0,0,1,7.4-4.15c5.75,0,8.6,4.15,8.6,9.5v15.25h-4.7v-14.45c0-3.35-1.4-6.05-5.6-6.05-3.7,0-5.6,2.95-5.6,6.6Z"/><path class="cls-6" d="M1414.34,4130.12c.3,2.5,2.2,4.5,5.6,4.5,2.65,0,4.1-1.5,4.1-3.2,0-1.5-1.1-2.65-3.1-3.1l-4.1-.9c-3.75-.8-6-3.35-6-6.75,0-4.1,3.86-7.6,8.56-7.6,6.6,0,8.65,4.3,9.15,6.45l-4.15,1.55a4.67,4.67,0,0,0-5-4c-2.41,0-4,1.55-4,3.2,0,1.45.9,2.5,2.75,2.9l3.9.85c4.35.95,6.65,3.6,6.65,7.15,0,3.4-2.85,7.45-8.8,7.45-6.6,0-9.41-4.25-9.81-7Z"/><path class="cls-6" d="M907.92,3967.14v-34.58H826.18v137.55c0,31.64-27.15,57.38-60.53,57.38a63,63,0,0,1-22.82-4.22c0-.29,0-.59,0-.89a13.77,13.77,0,1,0-5.13,10.71,73.89,73.89,0,0,0,27.92,5.4c39.45,0,71.53-30.67,71.53-68.38V3943.56h59.74v12.58h-44.8v149.55a13.74,13.74,0,1,0,11,.33V3967.14ZM729.1,4129.06a6.68,6.68,0,1,1,6.68-6.68A6.69,6.69,0,0,1,729.1,4129.06Zm134.81-10.61a6.69,6.69,0,1,1-6.69-6.68A6.69,6.69,0,0,1,863.91,4118.45Z"/><path class="cls-6" d="M800.24,4023.94a13.75,13.75,0,1,0,11,.34v-67.36H746.79v-13.36H788.2a13.77,13.77,0,1,0-.33-11H735.78v35.37h64.46Zm.39-93a6.69,6.69,0,1,1-6.68,6.69A6.69,6.69,0,0,1,800.63,3931Zm4.72,99a6.69,6.69,0,1,1-6.68,6.68A6.69,6.69,0,0,1,805.35,4030Z"/><rect class="cls-7" x="1257.7" y="4663.43" width="450.78" height="113.39" rx="10"/><text class="cls-8" transform="translate(1379.45 4739.2)"><tspan class="cls-9">P</tspan><tspan x="31.7" y="0">lat</tspan><tspan class="cls-10" x="92.83" y="0">f</tspan><tspan x="110.27" y="0">orm</tspan></text><rect class="cls-6" x="1256.37" y="4508.07" width="141.73" height="141.73" rx="10"/><path class="cls-2" d="M1358.84,4575.29l-28.4-14.15a2.5,2.5,0,0,0-2.23,4.47l25,12.47-25.55,12.65-25.32-12.86a2.41,2.41,0,0,0-1.26-.64l-13.36-6.78,39.94-19.61,40.95,19.61Zm-9.2,29.11c-23.57,15.79-42.6.82-46.56-2.73v-17.82l23.45,11.91a2.47,2.47,0,0,0,1.13.27,2.41,2.41,0,0,0,1.11-.26l20.87-10.34Zm25.77-36.25-46.67-22.34a2.46,2.46,0,0,0-2.18,0L1281,4568.16a2.51,2.51,0,0,0,0,4.48l17.08,8.67v21.44a2.5,2.5,0,0,0,.72,1.76c.17.18,12.12,11.92,29.48,11.92,7.58,0,16.19-2.25,25.3-8.67a2.5,2.5,0,0,0,1.06-2V4583l2.92-1.44v18a2.5,2.5,0,0,0,5,0V4579l12.88-6.38a2.5,2.5,0,0,0,0-4.5Z"/><rect class="cls-6" x="1411.37" y="4508.07" width="141.73" height="141.73" rx="10"/><path class="cls-2" d="M1514.09,4616.57h-9.77a4.39,4.39,0,0,1-4.37-4.4v-55.73a4.4,4.4,0,0,1,4.41-4.4h9.73a4.4,4.4,0,0,1,4.4,4.4v55.73A4.4,4.4,0,0,1,1514.09,4616.57Zm-59.77,0h9.77a4.4,4.4,0,0,0,4.4-4.4v-13.4a4.4,4.4,0,0,0-4.4-4.4h-9.77a4.4,4.4,0,0,0-4.4,4.4v13.4A4.4,4.4,0,0,0,1454.32,4616.57Zm39.16-31.27v26.87a4.4,4.4,0,0,1-4.4,4.4h-9.76a4.39,4.39,0,0,1-4.39-4.4V4585.3a4.4,4.4,0,0,1,4.39-4.39h9.77A4.39,4.39,0,0,1,1493.48,4585.3Zm-6.13,1.74H1481v23.4h6.3Zm-37.48-12.88,8.56-8.57a18.29,18.29,0,0,1,2.84-22.06h0a18.27,18.27,0,1,1,3.79,28.7l-8.56,8.56a4.68,4.68,0,0,1-6.62-6.62Zm16.08-9.45a11.68,11.68,0,1,0,0-16.54A11.7,11.7,0,0,0,1466,4564.71Z"/><rect class="cls-6" x="1256.37" y="4354.07" width="141.73" height="141.73" rx="10"/><rect class="cls-6" x="1411.37" y="4354.07" width="141.73" height="141.73" rx="10"/><rect class="cls-2" x="1304.41" y="4414.53" width="5.73" height="32.1"/><rect class="cls-2" x="1318.52" y="4414.53" width="5.73" height="32.1"/><rect class="cls-2" x="1332.53" y="4414.53" width="5.73" height="32.1"/><rect class="cls-2" x="1346.59" y="4414.53" width="5.73" height="32.1"/><rect class="cls-2" x="1301.89" y="4409.21" width="52.87" height="3.95"/><rect class="cls-2" x="1298.8" y="4448" width="59.33" height="3.67"/><rect class="cls-2" x="1291.61" y="4457.11" width="73.49" height="3.67"/><rect class="cls-2" x="1295.18" y="4452.61" width="66.43" height="3.67"/><path class="cls-2" d="M1361,4405.56h0L1328.32,4385l-32.62,20.52h0a1.35,1.35,0,0,0-.54,1.09c0,.76.61,1,1.37,1h63.62c.76,0,1.38-.25,1.38-1A1.36,1.36,0,0,0,1361,4405.56Z"/><rect class="cls-6" x="1566.05" y="4508.13" width="141.73" height="141.73" rx="10"/><path class="cls-2" d="M1518.33,4451.48l-17-17a4.49,4.49,0,0,0-5.92-.35l-4-4c13.11-16.59,1.24-41.21-20-41.21a25.49,25.49,0,0,0-25.46,25.46c0,21.22,24.57,33.1,41.21,20l4,4a4.48,4.48,0,0,0,.37,5.93l17,17h0a4.49,4.49,0,0,0,6.35,0h0l3.45-3.45a4.48,4.48,0,0,0,0-6.34Zm-46.93-17.65a19.47,19.47,0,1,1,19.47-19.47A19.46,19.46,0,0,1,1471.4,4433.83Zm1.72-22v-6.72a12.65,12.65,0,0,1,3.63,1.54,1.93,1.93,0,1,0,2.35-3,1.79,1.79,0,0,0-.38-.22,12.79,12.79,0,0,0-5.45-1.93v-.78a1.53,1.53,0,0,0-3.06,0v.73c-4.4.36-7.37,3-7.37,6.73,0,4,2.39,5.91,7.53,7.24v6.93a12.47,12.47,0,0,1-5.21-2.36c-2.08-1.63-4.49,1.72-2.14,3.28a15.2,15.2,0,0,0,7.21,2.74v2.18a1.53,1.53,0,0,0,3.06,0V4426c4.48-.42,7.5-3,7.5-6.86S1478.48,4413.2,1473.12,4411.83Zm-2.77-.74c-2.71-.87-3.38-1.79-3.38-3.27s1.08-2.71,3.38-2.93Zm2.77,11.29V4416c2.71.82,3.48,1.8,3.48,3.34,0,1.7-1.23,2.82-3.48,3.07Z"/><path class="cls-11" d="M1661.51,4587.39a6.67,6.67,0,0,0,3.82-1.15v6.82a12.46,12.46,0,0,1-6.07,1.36,8.82,8.82,0,0,1-3.72-.71,6.34,6.34,0,0,1-2.44-1.73,7.5,7.5,0,0,1-1.37-2.71,14.41,14.41,0,0,1-.65-3.21c-.1-1-.15-2.21-.15-3.58v-12.21h.06v-.15l-.64,0-.62,0a13,13,0,0,0-2.07.22v-6.62H1651V4561a20,20,0,0,0-.19-3.09h7.9a52.84,52.84,0,0,0-.19,5.73h5.93v6.62c-.34,0-.83,0-1.51-.07s-1.16-.08-1.48-.08h-2.94v12.71C1658.51,4585.87,1659.52,4587.39,1661.51,4587.39Zm-17.27,1.91c0,2.06,0,3.62.15,4.67h-7.75c.11-1.05.15-2.61.15-4.67v-21.2a40.13,40.13,0,0,0-.15-4.45h7.75a37.62,37.62,0,0,0-.15,4.31Zm-3.68-41.14a4.28,4.28,0,0,1,3.35,1.55,5.33,5.33,0,0,1,1.34,3.58,5.13,5.13,0,0,1-1.36,3.53,4.32,4.32,0,0,1-3.33,1.5,4.46,4.46,0,0,1-3.42-1.5,5.08,5.08,0,0,1-1.4-3.53,5.27,5.27,0,0,1,1.37-3.6A4.47,4.47,0,0,1,1640.56,4548.16Zm-20.77,31.18c2.76,0,4.13-1.58,4.13-4.76a5.92,5.92,0,0,0-1-3.56,3.62,3.62,0,0,0-3.1-1.41c-2.88,0-4.32,1.67-4.32,5C1615.47,4577.78,1616.91,4579.34,1619.79,4579.34Zm.93,25.17c3.5,0,5.27-1.22,5.27-3.66s-1.91-3.47-5.75-3.47c-3.67,0-5.5,1.2-5.5,3.62S1616.74,4604.51,1620.72,4604.51Zm5-39.56a21.06,21.06,0,0,0,7.59-1.64v7a26.92,26.92,0,0,1-2.75.77,8.43,8.43,0,0,1,.56,2.92,11.68,11.68,0,0,1-2.53,7.54,11.22,11.22,0,0,1-6.87,3.91,4.33,4.33,0,0,0-2.09.94,2.73,2.73,0,0,0-.67,2,2.38,2.38,0,0,0,.78,1.79,5.5,5.5,0,0,0,2,1.11c.82.26,1.74.53,2.73.76s2,.55,3,.89a13.5,13.5,0,0,1,2.76,1.3,6.17,6.17,0,0,1,2,2.23,7.15,7.15,0,0,1,.78,3.43q0,10.57-12.66,10.58a22.42,22.42,0,0,1-4.51-.43,15.49,15.49,0,0,1-4-1.43,7.52,7.52,0,0,1-3.06-2.86,8.38,8.38,0,0,1-1.11-4.43q0-5.74,6.32-7.83v-.15a4.76,4.76,0,0,1-2.32-4.37c0-2.54.73-4.12,2.19-4.77v-.14a7.72,7.72,0,0,1-4.17-3.77,11.81,11.81,0,0,1-1.66-5.77,10.86,10.86,0,0,1,3.31-8.06,11.36,11.36,0,0,1,8.2-3.21A12.21,12.21,0,0,1,1625.71,4565Z"/><g class="cls-12"><rect class="cls-2" width="3682.23" height="9223.48"/><g class="cls-13"><rect class="cls-2" x="1594.85" y="4535.38" width="83.26" height="87.93"/></g></g><g class="cls-14"><path class="cls-6" d="M1778.83,4179.29v22.25h-3.53v-22.25h-8.53V4176h20.59v3.27Z"/><path class="cls-6" d="M1803.45,4192.86c0,5.29-3.67,9.22-8.85,9.22s-8.86-3.93-8.86-9.22,3.67-9.18,8.86-9.18S1803.45,4187.61,1803.45,4192.86Zm-3.45,0c0-4-2.52-6.15-5.4-6.15s-5.4,2.16-5.4,6.15,2.52,6.19,5.4,6.19S1800,4196.89,1800,4192.86Z"/><path class="cls-6" d="M1821.31,4187.28v14.26h-3.49v-14.26h-3.21v-3.06h3.21v-2.91c0-3.85,2.55-5.94,5.68-5.94a4.32,4.32,0,0,1,2,.36v3a4,4,0,0,0-1.48-.21c-1.18,0-2.73.57-2.73,2.95v2.73h4.17v3.06Z"/><path class="cls-6" d="M1832.76,4191.64l4.68-.69c1-.14,1.33-.68,1.33-1.29,0-1.69-1.12-3.1-3.75-3.1a3.68,3.68,0,0,0-3.92,3.5l-3.24-.76c.36-3.31,3.35-5.62,7.09-5.62,5.19,0,7.2,3,7.2,6.34v8.67a16.33,16.33,0,0,0,.22,2.85h-3.32a13.17,13.17,0,0,1-.17-2.34,6.34,6.34,0,0,1-5.58,2.88c-3.53,0-5.8-2.45-5.8-5.19C1827.5,4193.8,1829.77,4192.07,1832.76,4191.64Zm6,2.48v-.79l-5.29.79a2.56,2.56,0,1,0,.28,5.11C1836.54,4199.23,1838.77,4197.9,1838.77,4194.12Z"/><path class="cls-6" d="M1849.42,4192.86c0,4,2.49,6.09,5.3,6.09a4.71,4.71,0,0,0,4.82-3.57l3,1.3a8,8,0,0,1-7.81,5.4c-5,0-8.75-4-8.75-9.22s3.78-9.18,8.71-9.18a7.52,7.52,0,0,1,7.7,5.51l-3.06,1.3a4.54,4.54,0,0,0-4.64-3.67C1851.94,4186.82,1849.42,4188.83,1849.42,4192.86Z"/><path class="cls-6" d="M1868.14,4175.23a2.43,2.43,0,1,1-2.41,2.44A2.43,2.43,0,0,1,1868.14,4175.23Zm-1.65,26.31v-17.32h3.35v17.32Z"/><path class="cls-6" d="M1875.6,4201.54v-26.06H1879v26.06Z"/><path class="cls-6" d="M1886.4,4175.23a2.43,2.43,0,1,1-2.42,2.44A2.42,2.42,0,0,1,1886.4,4175.23Zm-1.66,26.31v-17.32h3.35v17.32Z"/><path class="cls-6" d="M1898.38,4184.22h3.75v3.06h-3.75v9c0,1.59.65,2.38,2.42,2.38a6.26,6.26,0,0,0,1.33-.15v2.88a7.36,7.36,0,0,1-2.31.33c-3,0-4.82-1.8-4.82-4.93v-9.51h-3.31v-3.06h.93a2.42,2.42,0,0,0,2.67-2.66v-2.81h3.09Z"/><path class="cls-6" d="M1910.8,4191.64l4.68-.69c1-.14,1.33-.68,1.33-1.29,0-1.69-1.11-3.1-3.74-3.1a3.67,3.67,0,0,0-3.92,3.5l-3.24-.76c.36-3.31,3.35-5.62,7.09-5.62,5.18,0,7.2,3,7.2,6.34v8.67a16.73,16.73,0,0,0,.21,2.85h-3.31a12.84,12.84,0,0,1-.18-2.34,6.31,6.31,0,0,1-5.58,2.88c-3.53,0-5.79-2.45-5.79-5.19C1905.55,4193.8,1907.81,4192.07,1910.8,4191.64Zm6,2.48v-.79l-5.29.79a2.6,2.6,0,0,0-2.52,2.59,2.62,2.62,0,0,0,2.81,2.52C1914.58,4199.23,1916.81,4197.9,1916.81,4194.12Z"/><path class="cls-6" d="M1930,4184.22h3.74v3.06H1930v9c0,1.59.65,2.38,2.41,2.38a6.18,6.18,0,0,0,1.33-.15v2.88a7.22,7.22,0,0,1-2.3.33c-3,0-4.82-1.8-4.82-4.93v-9.51h-3.31v-3.06h.93a2.42,2.42,0,0,0,2.66-2.66v-2.81h3.1Z"/><path class="cls-6" d="M1953.14,4196.61a7.85,7.85,0,0,1-7.78,5.47c-4.64,0-8.71-3.39-8.71-9.25,0-5.44,3.92-9.15,8.28-9.15,5.33,0,8.32,3.68,8.32,9.07a6.72,6.72,0,0,1-.08,1.08h-13a5.15,5.15,0,0,0,5.22,5.26,4.72,4.72,0,0,0,4.86-3.49Zm-3.42-5.51a4.36,4.36,0,0,0-4.75-4.43,4.66,4.66,0,0,0-4.72,4.43Z"/><path class="cls-6" d="M1971.1,4184.22h3.75v3.06h-3.75v9c0,1.59.65,2.38,2.41,2.38a6.28,6.28,0,0,0,1.34-.15v2.88a7.36,7.36,0,0,1-2.31.33c-3,0-4.82-1.8-4.82-4.93v-9.51h-3.31v-3.06h.93a2.42,2.42,0,0,0,2.67-2.66v-2.81h3.09Z"/><path class="cls-6" d="M1982.73,4201.54h-3.38v-26.06h3.38v10.76a6.12,6.12,0,0,1,5.26-2.52c4.14,0,6.19,3,6.19,6.84v11h-3.39v-10.4c0-2.42-1-4.36-4-4.36-2.59,0-4,2-4,4.57Z"/><path class="cls-6" d="M2014.66,4196.61a7.84,7.84,0,0,1-7.77,5.47c-4.65,0-8.72-3.39-8.72-9.25,0-5.44,3.93-9.15,8.28-9.15,5.33,0,8.32,3.68,8.32,9.07a8.5,8.5,0,0,1-.07,1.08h-13a5.14,5.14,0,0,0,5.22,5.26,4.71,4.71,0,0,0,4.85-3.49Zm-3.42-5.51a4.36,4.36,0,0,0-4.75-4.43,4.67,4.67,0,0,0-4.72,4.43Z"/><path class="cls-6" d="M2028.09,4201.54v-17.32h3.24v2.31a6,6,0,0,1,5.26-2.81,5.41,5.41,0,0,1,5.18,3.28,6.21,6.21,0,0,1,5.79-3.28c3,0,6,2.05,6,6.59v11.23h-3.35v-10.87c0-2.27-1.11-4-3.67-4a4,4,0,0,0-4,4.35v10.48h-3.38v-10.87c0-2.23-1.08-4-3.67-4-2.41,0-4,1.8-4,4.39v10.44Z"/><path class="cls-6" d="M2063.12,4191.64l4.68-.69c1-.14,1.33-.68,1.33-1.29,0-1.69-1.12-3.1-3.74-3.1a3.68,3.68,0,0,0-3.93,3.5l-3.24-.76c.36-3.31,3.35-5.62,7.09-5.62,5.19,0,7.2,3,7.2,6.34v8.67a16.33,16.33,0,0,0,.22,2.85h-3.31a12.84,12.84,0,0,1-.18-2.34,6.34,6.34,0,0,1-5.58,2.88c-3.53,0-5.8-2.45-5.8-5.19C2057.86,4193.8,2060.13,4192.07,2063.12,4191.64Zm6,2.48v-.79l-5.29.79a2.6,2.6,0,0,0-2.52,2.59,2.62,2.62,0,0,0,2.81,2.52C2066.9,4199.23,2069.13,4197.9,2069.13,4194.12Z"/><path class="cls-6" d="M2082.3,4184.22h3.75v3.06h-3.75v9c0,1.59.65,2.38,2.42,2.38a6.26,6.26,0,0,0,1.33-.15v2.88a7.27,7.27,0,0,1-2.3.33c-3,0-4.83-1.8-4.83-4.93v-9.51h-3.31v-3.06h.94a2.42,2.42,0,0,0,2.66-2.66v-2.81h3.09Z"/><path class="cls-6" d="M2092.39,4192.86c0,4,2.48,6.09,5.29,6.09a4.71,4.71,0,0,0,4.82-3.57l3,1.3a8,8,0,0,1-7.81,5.4c-5,0-8.75-4-8.75-9.22s3.78-9.18,8.71-9.18a7.52,7.52,0,0,1,7.7,5.51l-3.06,1.3a4.54,4.54,0,0,0-4.64-3.67C2094.91,4186.82,2092.39,4188.83,2092.39,4192.86Z"/><path class="cls-6" d="M2112.83,4201.54h-3.38v-26.06h3.38v10.76a6.12,6.12,0,0,1,5.26-2.52c4.14,0,6.19,3,6.19,6.84v11h-3.38v-10.4c0-2.42-1-4.36-4-4.36-2.6,0-4,2-4,4.57Z"/><path class="cls-6" d="M2131.34,4175.23a2.43,2.43,0,1,1-2.41,2.44A2.43,2.43,0,0,1,2131.34,4175.23Zm-1.66,26.31v-17.32H2133v17.32Z"/><path class="cls-6" d="M2142.17,4201.54h-3.38v-17.32h3.31v2.49a5.93,5.93,0,0,1,5.33-3c4.14,0,6.19,3,6.19,6.84v11h-3.38v-10.4c0-2.42-1-4.36-4-4.36-2.67,0-4,2.12-4,4.75Z"/><path class="cls-6" d="M2161,4201.72a4.6,4.6,0,0,0,4.71,4.25c3.64,0,5.3-1.88,5.3-5.62v-2.48a5.78,5.78,0,0,1-5.3,2.84c-4.6,0-7.95-3.49-7.95-8.39,0-4.68,3.2-8.42,7.95-8.42,2.67,0,4.47,1,5.33,2.74v-2.42h3.35v16c0,4.39-2.16,8.68-8.68,8.68-4.32,0-7.56-2.74-8-6.45Zm10.15-9.4c0-3.34-2-5.54-4.93-5.54s-5,2.2-5,5.54,1.95,5.55,5,5.55C2169.17,4197.87,2171.19,4195.67,2171.19,4192.32Z"/><path class="cls-6" d="M1769.29,4244.74v-26.06h3.35v11.19a6.29,6.29,0,0,1,5.72-2.95c5.26,0,8,4,8,9.07s-2.91,9.22-8.06,9.22a6.18,6.18,0,0,1-5.61-3v2.52Zm8.46-14.83c-3,0-5.15,2.34-5.15,6.08s2.16,6.19,5.15,6.19,5.11-2.44,5.11-6.19S1780.88,4229.91,1777.75,4229.91Z"/><path class="cls-6" d="M1805.72,4239.81a7.85,7.85,0,0,1-7.78,5.47c-4.64,0-8.71-3.39-8.71-9.25,0-5.44,3.93-9.15,8.28-9.15,5.33,0,8.32,3.68,8.32,9.07a6.72,6.72,0,0,1-.08,1.08h-13a5.15,5.15,0,0,0,5.22,5.26,4.72,4.72,0,0,0,4.86-3.49Zm-3.42-5.51a4.36,4.36,0,0,0-4.75-4.43,4.66,4.66,0,0,0-4.72,4.43Z"/><path class="cls-6" d="M1814.68,4227.42h3.75v3.06h-3.75v9c0,1.59.65,2.38,2.42,2.38a6.26,6.26,0,0,0,1.33-.15v2.88a7.3,7.3,0,0,1-2.31.33c-2.95,0-4.82-1.8-4.82-4.93v-9.51H1808v-3.06h.93a2.42,2.42,0,0,0,2.67-2.66V4222h3.09Z"/><path class="cls-6" d="M1836.53,4227.42l4.5,13,3.82-13h3.56l-5.61,17.32h-3.5l-4.6-13.18-4.5,13.18h-3.56l-5.69-17.32h3.71l3.88,13,4.5-13Z"/><path class="cls-6" d="M1866.56,4239.81a7.85,7.85,0,0,1-7.78,5.47c-4.64,0-8.71-3.39-8.71-9.25,0-5.44,3.93-9.15,8.28-9.15,5.33,0,8.32,3.68,8.32,9.07a6.72,6.72,0,0,1-.08,1.08h-13a5.15,5.15,0,0,0,5.22,5.26,4.72,4.72,0,0,0,4.86-3.49Zm-3.42-5.51a4.36,4.36,0,0,0-4.75-4.43,4.66,4.66,0,0,0-4.72,4.43Z"/><path class="cls-6" d="M1886.07,4239.81a7.84,7.84,0,0,1-7.78,5.47c-4.64,0-8.71-3.39-8.71-9.25,0-5.44,3.93-9.15,8.28-9.15,5.33,0,8.32,3.68,8.32,9.07a8.5,8.5,0,0,1-.07,1.08h-13a5.15,5.15,0,0,0,5.22,5.26,4.71,4.71,0,0,0,4.86-3.49Zm-3.42-5.51a4.36,4.36,0,0,0-4.75-4.43,4.66,4.66,0,0,0-4.72,4.43Z"/><path class="cls-6" d="M1893.88,4244.74h-3.38v-17.32h3.31v2.49a5.93,5.93,0,0,1,5.33-3c4.14,0,6.19,3,6.19,6.84v11H1902v-10.4c0-2.42-1-4.36-4-4.36-2.66,0-4,2.12-4,4.75Z"/><path class="cls-6" d="M1923.11,4244.74h-3.38v-17.32H1923v2.49a5.93,5.93,0,0,1,5.33-3c4.14,0,6.19,3,6.19,6.84v11h-3.38v-10.4c0-2.42-1-4.36-4-4.36-2.67,0-4,2.12-4,4.75Z"/><path class="cls-6" d="M1955.05,4239.81a7.86,7.86,0,0,1-7.78,5.47c-4.64,0-8.71-3.39-8.71-9.25,0-5.44,3.92-9.15,8.28-9.15,5.33,0,8.31,3.68,8.31,9.07a7,7,0,0,1-.07,1.08h-13a5.14,5.14,0,0,0,5.22,5.26,4.72,4.72,0,0,0,4.86-3.49Zm-3.42-5.51a4.38,4.38,0,0,0-4.76-4.43,4.66,4.66,0,0,0-4.71,4.43Z"/><path class="cls-6" d="M1974.56,4239.81a7.86,7.86,0,0,1-7.78,5.47c-4.64,0-8.71-3.39-8.71-9.25,0-5.44,3.92-9.15,8.28-9.15,5.33,0,8.31,3.68,8.31,9.07a7,7,0,0,1-.07,1.08h-13a5.15,5.15,0,0,0,5.22,5.26,4.72,4.72,0,0,0,4.86-3.49Zm-3.42-5.51a4.37,4.37,0,0,0-4.75-4.43,4.66,4.66,0,0,0-4.72,4.43Z"/><path class="cls-6" d="M1991.12,4242.11a5.8,5.8,0,0,1-5.37,3.1c-5.07,0-8.2-4-8.2-9.18,0-4.9,3.31-9.07,8.2-9.07,3.06,0,4.72,1.51,5.3,2.91v-11.19h3.34v22.85a29,29,0,0,0,.18,3.21h-3.27a13.69,13.69,0,0,1-.18-2.34Zm-5,.11c3.09,0,5-2.7,5-6.27s-1.87-6-5-6-5.11,2.52-5.11,6.09S1982.84,4242.22,1986.08,4242.22Z"/><path class="cls-6" d="M2013.33,4234.84l4.68-.68c1-.15,1.33-.69,1.33-1.3,0-1.69-1.12-3.1-3.74-3.1a3.68,3.68,0,0,0-3.93,3.5l-3.24-.76c.36-3.31,3.35-5.62,7.1-5.62,5.18,0,7.19,3,7.19,6.34v8.67a16.33,16.33,0,0,0,.22,2.85h-3.31a12.84,12.84,0,0,1-.18-2.34,6.32,6.32,0,0,1-5.58,2.88c-3.53,0-5.8-2.45-5.8-5.19C2008.07,4237,2010.34,4235.27,2013.33,4234.84Zm6,2.48v-.79l-5.29.79a2.6,2.6,0,0,0-2.52,2.59,2.62,2.62,0,0,0,2.81,2.52C2017.11,4242.43,2019.34,4241.1,2019.34,4237.32Z"/><path class="cls-6" d="M2031.37,4244.74H2028v-17.32h3.31v2.49a5.94,5.94,0,0,1,5.33-3c4.14,0,6.19,3,6.19,6.84v11h-3.38v-10.4c0-2.42-1-4.36-4-4.36-2.67,0-4,2.12-4,4.75Z"/><path class="cls-6" d="M2060.34,4242.11a5.78,5.78,0,0,1-5.36,3.1c-5.07,0-8.21-4-8.21-9.18,0-4.9,3.32-9.07,8.21-9.07,3.06,0,4.72,1.51,5.29,2.91v-11.19h3.35v22.85a26.57,26.57,0,0,0,.18,3.21h-3.28a14.84,14.84,0,0,1-.18-2.34Zm-5,.11c3.1,0,5-2.7,5-6.27s-1.87-6-5-6-5.11,2.52-5.11,6.09S2052.06,4242.22,2055.3,4242.22Z"/><path class="cls-6" d="M2094.65,4236.06c0,5.29-3.67,9.22-8.85,9.22s-8.86-3.93-8.86-9.22,3.67-9.18,8.86-9.18S2094.65,4230.81,2094.65,4236.06Zm-3.45,0c0-4-2.52-6.15-5.4-6.15s-5.4,2.16-5.4,6.15,2.52,6.19,5.4,6.19S2091.2,4240.09,2091.2,4236.06Z"/><path class="cls-6" d="M2099,4251.58v-24.16h3.28v2.7a6.41,6.41,0,0,1,5.8-3.09c5.18,0,7.95,4,7.95,9s-3,9.15-8.06,9.15a6.44,6.44,0,0,1-5.62-2.81v9.18Zm8.46-21.56c-3.09,0-5.14,2.59-5.14,6s2.05,6.12,5.14,6.12,5.11-2.55,5.11-6.12S2110.6,4230,2107.43,4230Z"/><path class="cls-6" d="M2120.32,4251.58v-24.16h3.28v2.7a6.38,6.38,0,0,1,5.79-3.09c5.19,0,8,4,8,9s-3,9.15-8.07,9.15a6.42,6.42,0,0,1-5.61-2.81v9.18Zm8.46-21.56c-3.1,0-5.15,2.59-5.15,6s2,6.12,5.15,6.12,5.11-2.55,5.11-6.12S2132,4230,2128.78,4230Z"/><path class="cls-6" d="M2157.94,4236.06c0,5.29-3.67,9.22-8.86,9.22s-8.85-3.93-8.85-9.22,3.67-9.18,8.85-9.18S2157.94,4230.81,2157.94,4236.06Zm-3.46,0c0-4-2.52-6.15-5.4-6.15s-5.4,2.16-5.4,6.15,2.52,6.19,5.4,6.19S2154.48,4240.09,2154.48,4236.06Z"/><path class="cls-6" d="M2171.87,4230.84a10.79,10.79,0,0,0-1.47-.1c-2.85,0-4.76,1.51-4.76,5.32v8.68h-3.38v-17.32h3.31v3a5.41,5.41,0,0,1,5.19-3.31,7.28,7.28,0,0,1,1.11.1Z"/><path class="cls-6" d="M2180.91,4227.42h3.74v3.06h-3.74v9c0,1.59.64,2.38,2.41,2.38a6.26,6.26,0,0,0,1.33-.15v2.88a7.27,7.27,0,0,1-2.3.33c-2.95,0-4.83-1.8-4.83-4.93v-9.51h-3.31v-3.06h.94a2.42,2.42,0,0,0,2.66-2.66V4222h3.1Z"/><path class="cls-6" d="M2195.45,4245.28c-4,0-6.48-3-6.48-6.95v-10.91h3.39v10.41c0,2.37,1.08,4.46,3.92,4.46s4.1-1.8,4.1-4.43v-10.44h3.39v14.11a27.3,27.3,0,0,0,.18,3.21h-3.24a15.6,15.6,0,0,1-.15-2.09A5.64,5.64,0,0,1,2195.45,4245.28Z"/><path class="cls-6" d="M2212.91,4244.74h-3.38v-17.32h3.31v2.49a5.93,5.93,0,0,1,5.33-3c4.14,0,6.19,3,6.19,6.84v11H2221v-10.4c0-2.42-1-4.36-4-4.36-2.66,0-4,2.12-4,4.75Z"/><path class="cls-6" d="M2231.42,4218.43a2.43,2.43,0,1,1-2.42,2.44A2.42,2.42,0,0,1,2231.42,4218.43Zm-1.66,26.31v-17.32h3.35v17.32Z"/><path class="cls-6" d="M2243.4,4227.42h3.75v3.06h-3.75v9c0,1.59.65,2.38,2.41,2.38a6.28,6.28,0,0,0,1.34-.15v2.88a7.36,7.36,0,0,1-2.31.33c-3,0-4.82-1.8-4.82-4.93v-9.51h-3.31v-3.06h.93a2.43,2.43,0,0,0,2.67-2.66V4222h3.09Z"/><path class="cls-6" d="M2252.44,4252l4.32-9.14-7.45-15.41h3.88l5.4,11.95,5.19-11.95h3.63L2256.15,4252Z"/><path class="cls-6" d="M1785.56,4279.26c0,5.29-3.67,9.22-8.86,9.22s-8.85-3.93-8.85-9.22,3.67-9.18,8.85-9.18S1785.56,4274,1785.56,4279.26Zm-3.46,0c0-4-2.52-6.15-5.4-6.15s-5.4,2.16-5.4,6.15,2.52,6.19,5.4,6.19S1782.1,4283.29,1782.1,4279.26Z"/><path class="cls-6" d="M1793.26,4287.94h-3.38v-17.32h3.31v2.49a5.93,5.93,0,0,1,5.33-3c4.14,0,6.19,3,6.19,6.84v11h-3.38v-10.4c0-2.42-1-4.36-4-4.36-2.67,0-4,2.12-4,4.75Z"/><path class="cls-6" d="M1823.29,4278l4.68-.68c1-.15,1.33-.69,1.33-1.3,0-1.69-1.12-3.1-3.75-3.1a3.68,3.68,0,0,0-3.92,3.5l-3.24-.76c.36-3.31,3.35-5.62,7.09-5.62,5.19,0,7.2,3,7.2,6.34v8.67a16.33,16.33,0,0,0,.22,2.85h-3.31a12,12,0,0,1-.18-2.34,6.34,6.34,0,0,1-5.58,2.88c-3.53,0-5.8-2.45-5.8-5.19C1818,4280.2,1820.3,4278.47,1823.29,4278Zm6,2.48v-.79l-5.29.79a2.56,2.56,0,1,0,.29,5.11C1827.07,4285.63,1829.3,4284.3,1829.3,4280.52Z"/><path class="cls-6" d="M1837.94,4287.94v-26.06h3.38v26.06Z"/><path class="cls-6" d="M1847.08,4287.94v-26.06h3.39v26.06Z"/><path class="cls-6" d="M1865.23,4287.94v-26.06h3.38v26.06Z"/><path class="cls-6" d="M1889.45,4283a7.84,7.84,0,0,1-7.77,5.47c-4.64,0-8.71-3.39-8.71-9.25,0-5.44,3.92-9.15,8.28-9.15,5.32,0,8.31,3.68,8.31,9.08a7.16,7.16,0,0,1-.07,1.08h-13a5.14,5.14,0,0,0,5.22,5.25,4.72,4.72,0,0,0,4.86-3.49Zm-3.42-5.51a4.36,4.36,0,0,0-4.75-4.43,4.66,4.66,0,0,0-4.71,4.43Z"/><path class="cls-6" d="M1901.44,4287.94H1898l-7-17.32h3.82l4.93,13.36,5-13.36h3.63Z"/><path class="cls-6" d="M1926.14,4283a7.85,7.85,0,0,1-7.78,5.47c-4.64,0-8.71-3.39-8.71-9.25,0-5.44,3.93-9.15,8.28-9.15,5.33,0,8.32,3.68,8.32,9.08a6.92,6.92,0,0,1-.08,1.08h-13a5.15,5.15,0,0,0,5.22,5.25,4.72,4.72,0,0,0,4.86-3.49Zm-3.42-5.51a4.36,4.36,0,0,0-4.75-4.43,4.66,4.66,0,0,0-4.72,4.43Z"/><path class="cls-6" d="M1930.57,4287.94v-26.06H1934v26.06Z"/><path class="cls-6" d="M1941.15,4282.36a3.69,3.69,0,0,0,4,3.24c1.91,0,3-1.08,3-2.31,0-1.08-.8-1.9-2.24-2.23l-3-.65c-2.7-.57-4.32-2.41-4.32-4.85,0-3,2.77-5.48,6.16-5.48,4.75,0,6.22,3.1,6.58,4.65l-3,1.11a3.37,3.37,0,0,0-3.6-2.88,2.61,2.61,0,0,0-2.88,2.31c0,1,.64,1.8,2,2.09l2.8.61c3.14.68,4.79,2.59,4.79,5.15s-2,5.36-6.33,5.36c-4.76,0-6.77-3.06-7.06-5Z"/></g><text class="cls-15" transform="translate(1731.91 4145.34)"><tspan class="cls-16">M</tspan><tspan x="43.56" y="0">ain </tspan><tspan class="cls-17" x="118.03" y="0">O</tspan><tspan x="154.97" y="0">bjec</tspan><tspan class="cls-18" x="245.08" y="0">t</tspan><tspan x="261.97" y="0">i</tspan><tspan class="cls-19" x="274.16" y="0">v</tspan><tspan x="297.62" y="0">es</tspan></text><text class="cls-15" transform="translate(1793.52 4474.03)"><tspan class="cls-20">C</tspan><tspan x="34.04" y="0">on</tspan><tspan class="cls-21" x="87.08" y="0">t</tspan><tspan class="cls-22" x="103.54" y="0">r</tspan><tspan x="121.12" y="0">i</tspan><tspan class="cls-16" x="133.31" y="0">b</tspan><tspan x="160.95" y="0">u</tspan><tspan class="cls-18" x="187.5" y="0">t</tspan><tspan x="204.38" y="0">ing </tspan><tspan class="cls-23" x="281.47" y="0">a</tspan><tspan x="305.9" y="0">c</tspan><tspan class="cls-16" x="330.78" y="0">t</tspan><tspan x="347.44" y="0">o</tspan><tspan class="cls-24" x="374.07" y="0">r</tspan><tspan x="391.69" y="0">s</tspan></text><text class="cls-25" transform="translate(1827.53 4540.88)"><tspan class="cls-26">A</tspan><tspan class="cls-27" x="24.73" y="0">c</tspan><tspan x="43.63" y="0">ademia</tspan><tspan class="cls-28" x="0" y="54">R</tspan><tspan x="21.56" y="54">e</tspan><tspan class="cls-27" x="41.08" y="54">s</tspan><tspan x="57.17" y="54">ea</tspan><tspan class="cls-27" x="95.51" y="54">r</tspan><tspan x="108.54" y="54">ch</tspan><tspan class="cls-28" x="0" y="108">P</tspan><tspan x="20.77" y="108">ublic </tspan><tspan class="cls-27" x="108.83" y="108">s</tspan><tspan x="124.92" y="108">ec</tspan><tspan class="cls-27" x="163.51" y="108">t</tspan><tspan x="176.11" y="108">or</tspan><tspan class="cls-29" x="0" y="162">P</tspan><tspan x="20.95" y="162">ri</tspan><tspan class="cls-27" x="43.27" y="162">v</tspan><tspan x="61.16" y="162">a</tspan><tspan class="cls-27" x="79.99" y="162">t</tspan><tspan x="92.59" y="162">e </tspan><tspan class="cls-27" x="121.1" y="162">s</tspan><tspan x="137.2" y="162">ec</tspan><tspan class="cls-27" x="175.79" y="162">t</tspan><tspan x="188.39" y="162">or</tspan><tspan x="0" y="216">D</tspan><tspan class="cls-26" x="25.92" y="216">e</tspan><tspan class="cls-29" x="45.07" y="216">v</tspan><tspan x="62.6" y="216">elopers</tspan></text><text class="cls-15" transform="translate(854.78 4466.24)"><tspan class="cls-30">S</tspan><tspan x="27.32" y="0">ha</tspan><tspan class="cls-18" x="78.2" y="0">r</tspan><tspan x="95.77" y="0">ing</tspan></text><text class="cls-25" transform="translate(893.78 4534.72)">Data<tspan class="cls-29" x="0" y="54">K</tspan><tspan x="23.51" y="54">n</tspan><tspan class="cls-26" x="43.74" y="54">o</tspan><tspan x="63.97" y="54">wledge</tspan><tspan class="cls-28" x="0" y="108">R</tspan><tspan x="21.56" y="108">e</tspan><tspan class="cls-27" x="41.08" y="108">so</tspan><tspan x="77.58" y="108">u</tspan><tspan class="cls-27" x="97.96" y="108">rc</tspan><tspan x="129.89" y="108">es</tspan><tspan class="cls-26" x="0" y="162">S</tspan><tspan x="20.99" y="162">e</tspan><tspan class="cls-31" x="40.5" y="162">r</tspan><tspan x="54.25" y="162">vi</tspan><tspan class="cls-32" x="81.43" y="162">c</tspan><tspan x="100.33" y="162">es</tspan></text><circle class="cls-33" cx="1693.45" cy="4134.81" r="8.67"/><polyline class="cls-34" points="1665.33 4134.81 1519.94 4134.81 1519.94 4299.33"/><circle class="cls-33" cx="1060.43" cy="4456.92" r="8.67"/><line class="cls-34" x1="1080.1" y1="4457.25" x2="1202.84" y2="4457.25"/><circle class="cls-33" cx="1764.77" cy="4459.16" r="8.67"/><line class="cls-34" x1="1598.22" y1="4460.16" x2="1743.8" y2="4460.16"/><text class="cls-35" transform="translate(1247.11 4822.97)">A <tspan class="cls-36" x="26.52" y="0">f</tspan><tspan x="35.98" y="0">undament </tspan><tspan class="cls-37" x="170.52" y="0">f</tspan><tspan x="179.56" y="0">or </tspan><tspan class="cls-36" x="212.85" y="0">t</tspan><tspan x="222.65" y="0">ech-ba</tspan><tspan class="cls-36" x="309.76" y="0">s</tspan><tspan x="322.28" y="0">ed ac</tspan><tspan class="cls-36" x="390.4" y="0">t</tspan><tspan x="400.2" y="0">ors </tspan><tspan class="cls-36" x="446.15" y="0">t</tspan><tspan x="455.95" y="0">o </tspan><tspan class="cls-36" x="-19.8" y="33.6">c</tspan><tspan x="-5.1" y="33.6">ollabora</tspan><tspan class="cls-36" x="97.33" y="33.6">t</tspan><tspan x="107.13" y="33.6">e in a </tspan><tspan class="cls-38" x="180.77" y="33.6">t</tspan><tspan x="190.43" y="33.6">ranspa</tspan><tspan class="cls-36" x="274.99" y="33.6">r</tspan><tspan x="285.12" y="33.6">ent envi</tspan><tspan class="cls-36" x="385.02" y="33.6">r</tspan><tspan x="395.16" y="33.6">onment</tspan></text><text class="cls-39" transform="translate(672.26 4200.01)"><tspan class="cls-40">v</tspan><tspan x="5.92" y="0">v</tspan></text></g></g></svg>